<svg width="21" height="20" viewBox="0 0 21 20" fill="none" xmlns="http://www.w3.org/2000/svg">
<path d="M18.4417 13.2751C18.3083 13.0501 17.9333 12.7001 17 12.8667C16.4833 12.9584 15.9583 13.0001 15.4333 12.9751C13.4917 12.8917 11.7333 12.0001 10.5083 10.6251C9.425 9.41672 8.75833 7.84172 8.75 6.14172C8.75 5.19172 8.93333 4.27506 9.30833 3.40839C9.675 2.56672 9.41667 2.12506 9.23333 1.94172C9.04167 1.75006 8.59167 1.48339 7.70833 1.85006C4.3 3.28339 2.19167 6.70006 2.44167 10.3584C2.69167 13.8001 5.10833 16.7417 8.30833 17.8501C9.075 18.1167 9.88333 18.2751 10.7167 18.3084C10.85 18.3167 10.9833 18.3251 11.1167 18.3251C13.9083 18.3251 16.525 17.0084 18.175 14.7667C18.7333 13.9917 18.5833 13.5001 18.4417 13.2751Z" fill="#A9A9A9"/>
</svg>
