<svg width="21" height="20" viewBox="0 0 21 20" fill="none" xmlns="http://www.w3.org/2000/svg">
<path d="M18.4419 13.2751C18.3086 13.0501 17.9336 12.7001 17.0002 12.8667C16.4836 12.9584 15.9586 13.0001 15.4336 12.9751C13.4919 12.8917 11.7336 12.0001 10.5086 10.6251C9.42525 9.41672 8.75858 7.84172 8.75025 6.14172C8.75025 5.19172 8.93358 4.27506 9.30858 3.40839C9.67525 2.56672 9.41691 2.12506 9.23358 1.94172C9.04191 1.75006 8.59191 1.48339 7.70858 1.85006C4.30024 3.28339 2.19191 6.70006 2.44191 10.3584C2.69191 13.8001 5.10858 16.7417 8.30858 17.8501C9.07525 18.1167 9.88358 18.2751 10.7169 18.3084C10.8502 18.3167 10.9836 18.3251 11.1169 18.3251C13.9086 18.3251 16.5252 17.0084 18.1752 14.7667C18.7336 13.9917 18.5836 13.5001 18.4419 13.2751Z" fill="white"/>
</svg>
