<svg width="40" height="40" viewBox="0 0 40 40" fill="none" xmlns="http://www.w3.org/2000/svg">
<rect width="40" height="40" rx="20" fill="white"/>
<path d="M25.3997 18.1468C24.193 18.1468 23.6997 17.2935 24.2997 16.2468C24.6463 15.6401 24.4397 14.8668 23.833 14.5201L22.6797 13.8601C22.153 13.5468 21.473 13.7335 21.1597 14.2601L21.0863 14.3868C20.4863 15.4335 19.4997 15.4335 18.893 14.3868L18.8197 14.2601C18.5197 13.7335 17.8397 13.5468 17.313 13.8601L16.1597 14.5201C15.553 14.8668 15.3463 15.6468 15.693 16.2535C16.2997 17.2935 15.8063 18.1468 14.5997 18.1468C13.9063 18.1468 13.333 18.7135 13.333 19.4135V20.5868C13.333 21.2801 13.8997 21.8535 14.5997 21.8535C15.8063 21.8535 16.2997 22.7068 15.693 23.7535C15.3463 24.3601 15.553 25.1335 16.1597 25.4801L17.313 26.1401C17.8397 26.4535 18.5197 26.2668 18.833 25.7401L18.9063 25.6135C19.5063 24.5668 20.493 24.5668 21.0997 25.6135L21.173 25.7401C21.4863 26.2668 22.1663 26.4535 22.693 26.1401L23.8463 25.4801C24.453 25.1335 24.6597 24.3535 24.313 23.7535C23.7063 22.7068 24.1997 21.8535 25.4063 21.8535C26.0997 21.8535 26.673 21.2868 26.673 20.5868V19.4135C26.6663 18.7201 26.0997 18.1468 25.3997 18.1468ZM19.9997 22.1668C18.8063 22.1668 17.833 21.1935 17.833 20.0001C17.833 18.8068 18.8063 17.8335 19.9997 17.8335C21.193 17.8335 22.1663 18.8068 22.1663 20.0001C22.1663 21.1935 21.193 22.1668 19.9997 22.1668Z" fill="#2C3131"/>
</svg>
