<svg width="24" height="24" viewBox="0 0 24 24" fill="none" xmlns="http://www.w3.org/2000/svg">
<path d="M21.8059 10.0415H21.0004V10H12.0004V14H17.6519C16.8274 16.3285 14.6119 18 12.0004 18C8.6869 18 6.0004 15.3135 6.0004 12C6.0004 8.6865 8.6869 6 12.0004 6C13.5299 6 14.9214 6.577 15.9809 7.5195L18.8094 4.691C17.0234 3.0265 14.6344 2 12.0004 2C6.4779 2 2.0004 6.4775 2.0004 12C2.0004 17.5225 6.4779 22 12.0004 22C17.5229 22 22.0004 17.5225 22.0004 12C22.0004 11.3295 21.9314 10.675 21.8059 10.0415Z" fill="#FFC107"/>
<path d="M18.5079 4.69793L15.9705 7.2354C14.8947 6.3369 13.5128 5.79167 12.0005 5.79167C9.48749 5.79167 7.32745 7.28564 6.35095 9.43207L3.42292 7.28473C5.08939 4.25952 8.304 2.20833 12.0005 2.20833C14.5015 2.20833 16.7771 3.15344 18.5079 4.69793Z" fill="#EA4335" stroke="#EA4335" stroke-width="0.416667"/>
<path d="M11.9998 21.9999C14.5828 21.9999 16.9298 21.0114 18.7043 19.4039L15.6093 16.7849C14.5715 17.574 13.3035 18.0009 11.9998 17.9999C9.39876 17.9999 7.19026 16.3414 6.35826 14.0269L3.09726 16.5394C4.75226 19.7779 8.11326 21.9999 11.9998 21.9999Z" fill="#4CAF50"/>
<path d="M21.8055 10.0415H21V10H12V14H17.6515C17.2571 15.1082 16.5467 16.0766 15.608 16.7855L15.6095 16.7845L18.7045 19.4035C18.4855 19.6025 22 17 22 12C22 11.3295 21.931 10.675 21.8055 10.0415Z" fill="#1976D2"/>
</svg>
