<svg width="40" height="40" viewBox="0 0 40 40" fill="none" xmlns="http://www.w3.org/2000/svg">
<rect width="40" height="40" rx="20" fill="#2C3131"/>
<path d="M25.3999 18.1468C24.1933 18.1468 23.6999 17.2935 24.2999 16.2468C24.6466 15.6401 24.4399 14.8668 23.8333 14.5201L22.6799 13.8601C22.1533 13.5468 21.4733 13.7335 21.1599 14.2601L21.0866 14.3868C20.4866 15.4335 19.4999 15.4335 18.8933 14.3868L18.8199 14.2601C18.5199 13.7335 17.8399 13.5468 17.3133 13.8601L16.1599 14.5201C15.5533 14.8668 15.3466 15.6468 15.6933 16.2535C16.2999 17.2935 15.8066 18.1468 14.5999 18.1468C13.9066 18.1468 13.3333 18.7135 13.3333 19.4135V20.5868C13.3333 21.2801 13.8999 21.8535 14.5999 21.8535C15.8066 21.8535 16.2999 22.7068 15.6933 23.7535C15.3466 24.3601 15.5533 25.1335 16.1599 25.4801L17.3133 26.1401C17.8399 26.4535 18.5199 26.2668 18.8333 25.7401L18.9066 25.6135C19.5066 24.5668 20.4933 24.5668 21.0999 25.6135L21.1733 25.7401C21.4866 26.2668 22.1666 26.4535 22.6933 26.1401L23.8466 25.4801C24.4533 25.1335 24.6599 24.3535 24.3133 23.7535C23.7066 22.7068 24.1999 21.8535 25.4066 21.8535C26.0999 21.8535 26.6733 21.2868 26.6733 20.5868V19.4135C26.6666 18.7201 26.0999 18.1468 25.3999 18.1468ZM19.9999 22.1668C18.8066 22.1668 17.8333 21.1935 17.8333 20.0001C17.8333 18.8068 18.8066 17.8335 19.9999 17.8335C21.1933 17.8335 22.1666 18.8068 22.1666 20.0001C22.1666 21.1935 21.1933 22.1668 19.9999 22.1668Z" fill="white"/>
</svg>
