<svg width="311" height="311" viewBox="0 0 311 311" fill="none" xmlns="http://www.w3.org/2000/svg">
<circle cx="155.5" cy="155.5" r="155.5" fill="#FAFAFA"/>
<rect x="239" y="16" width="56" height="56" rx="28" fill="#53D258"/>
<path d="M272.134 42.0536L272.134 42.0536L272.139 42.0475C272.614 41.5571 272.622 40.775 272.134 40.2864C271.648 39.8012 270.852 39.8012 270.366 40.2864L265.58 45.0729L263.634 43.1264C263.148 42.6412 262.352 42.6412 261.866 43.1264C261.381 43.6117 261.381 44.4083 261.866 44.8936L264.696 47.7236C264.929 47.9563 265.246 48.09 265.58 48.09C265.914 48.09 266.231 47.9563 266.464 47.7236L272.134 42.0536ZM257.5 44C257.5 38.7661 261.766 34.5 267 34.5C272.234 34.5 276.5 38.7661 276.5 44C276.5 49.2339 272.234 53.5 267 53.5C261.766 53.5 257.5 49.2339 257.5 44Z" fill="white" stroke="white"/>
<rect x="66" y="15" width="28" height="28" rx="14" fill="#2C3131"/>
<path d="M78.1332 26.5502C78.1332 25.5208 78.9705 24.6835 79.9999 24.6835C81.029 24.6835 81.8661 25.5204 81.8665 26.5494C81.8623 27.5595 81.0756 28.3738 80.0728 28.4122H80.0728H80.0728H80.0727H80.0727H80.0727H80.0727H80.0727H80.0727H80.0726H80.0726H80.0726H80.0726H80.0726H80.0726H80.0725H80.0725H80.0725H80.0725H80.0725H80.0724H80.0724H80.0724H80.0724H80.0724H80.0724H80.0723H80.0723H80.0723H80.0723H80.0723H80.0723H80.0722H80.0722H80.0722H80.0722H80.0722H80.0721H80.0721H80.0721H80.0721H80.0721H80.072H80.072H80.072H80.072H80.072H80.0719H80.0719H80.0719H80.0719H80.0719H80.0719H80.0718H80.0718H80.0718H80.0718H80.0718H80.0717H80.0717H80.0717H80.0717H80.0716H80.0716H80.0716H80.0716H80.0716H80.0715H80.0715H80.0715H80.0715H80.0715H80.0714H80.0714H80.0714H80.0714H80.0714H80.0713H80.0713H80.0713H80.0713H80.0712H80.0712H80.0712H80.0712H80.0712H80.0711H80.0711H80.0711H80.0711H80.071H80.071H80.071H80.071H80.071H80.0709H80.0709H80.0709H80.0709H80.0708H80.0708H80.0708H80.0708H80.0707H80.0707H80.0707H80.0707H80.0706H80.0706H80.0706H80.0706H80.0705H80.0705H80.0705H80.0705H80.0704H80.0704H80.0704H80.0704H80.0703H80.0703H80.0703H80.0703H80.0702H80.0702H80.0702H80.0702H80.0701H80.0701H80.0701H80.0701H80.07H80.07H80.07H80.07H80.0699H80.0699H80.0699H80.0698H80.0698H80.0697H80.0697H80.0696H80.0695H80.0695H80.0694H80.0694H80.0693H80.0693H80.0692H80.0692H80.0691H80.0691H80.069H80.069H80.0689H80.0688H80.0688H80.0687H80.0687H80.0686C80.0221 28.4073 79.9755 28.4079 79.9331 28.4115C78.9078 28.3647 78.1332 27.551 78.1332 26.5502Z" fill="white" stroke="white" stroke-width="0.7"/>
<path d="M77.8244 32.7183L77.8234 32.7177C77.3061 32.3728 77.0646 31.9391 77.0646 31.5109C77.0646 31.0824 77.3064 30.6442 77.8279 30.2949C78.4146 29.9068 79.202 29.7025 80.0058 29.7025C80.8099 29.7025 81.5948 29.907 82.1765 30.2948C82.6912 30.6379 82.9312 31.0714 82.9353 31.503C82.9347 31.9357 82.6928 32.3692 82.1751 32.7185C81.5912 33.1105 80.8045 33.3169 79.9999 33.3169C79.1952 33.3169 78.4083 33.1104 77.8244 32.7183Z" fill="white" stroke="white" stroke-width="0.7"/>
<path d="M70.7867 71.156C70.2187 71.156 69.6847 71.044 69.1847 70.82C68.6847 70.592 68.2447 70.278 67.8647 69.878C67.4887 69.478 67.1927 69.016 66.9767 68.492C66.7647 67.964 66.6587 67.4 66.6587 66.8C66.6587 66.196 66.7647 65.632 66.9767 65.108C67.1927 64.58 67.4887 64.118 67.8647 63.722C68.2447 63.322 68.6847 63.01 69.1847 62.786C69.6847 62.558 70.2187 62.444 70.7867 62.444C71.4667 62.444 72.0927 62.602 72.6647 62.918C73.2367 63.23 73.7107 63.648 74.0867 64.172L72.7787 64.874C72.5427 64.582 72.2487 64.348 71.8967 64.172C71.5487 63.996 71.1787 63.908 70.7867 63.908C70.4187 63.908 70.0727 63.984 69.7487 64.136C69.4247 64.284 69.1407 64.492 68.8967 64.76C68.6527 65.024 68.4627 65.332 68.3267 65.684C68.1907 66.032 68.1227 66.404 68.1227 66.8C68.1227 67.2 68.1907 67.574 68.3267 67.922C68.4667 68.27 68.6587 68.578 68.9027 68.846C69.1467 69.11 69.4287 69.318 69.7487 69.47C70.0727 69.618 70.4187 69.692 70.7867 69.692C71.1867 69.692 71.5587 69.604 71.9027 69.428C72.2507 69.248 72.5427 69.012 72.7787 68.72L74.0867 69.428C73.7107 69.948 73.2367 70.366 72.6647 70.682C72.0927 70.998 71.4667 71.156 70.7867 71.156ZM75.0582 71L75.0522 65H76.5162L76.5222 65.534C76.7262 65.318 76.9702 65.148 77.2542 65.024C77.5382 64.896 77.8442 64.832 78.1722 64.832C78.3922 64.832 78.6122 64.864 78.8322 64.928L78.2562 66.404C78.1042 66.344 77.9522 66.314 77.8002 66.314C77.5642 66.314 77.3482 66.372 77.1522 66.488C76.9602 66.6 76.8062 66.754 76.6902 66.95C76.5782 67.142 76.5222 67.356 76.5222 67.592V71H75.0582ZM81.7441 71.156C81.1921 71.156 80.6881 71.014 80.2321 70.73C79.7801 70.446 79.4181 70.064 79.1461 69.584C78.8781 69.104 78.7441 68.574 78.7441 67.994C78.7441 67.558 78.8221 67.15 78.9781 66.77C79.1341 66.386 79.3481 66.05 79.6201 65.762C79.8961 65.47 80.2161 65.242 80.5801 65.078C80.9441 64.914 81.3321 64.832 81.7441 64.832C82.2121 64.832 82.6401 64.932 83.0281 65.132C83.4201 65.328 83.7521 65.598 84.0241 65.942C84.2961 66.286 84.4941 66.678 84.6181 67.118C84.7421 67.558 84.7701 68.018 84.7021 68.498H80.3161C80.3721 68.722 80.4641 68.924 80.5921 69.104C80.7201 69.28 80.8821 69.422 81.0781 69.53C81.2741 69.634 81.4961 69.688 81.7441 69.692C82.0001 69.696 82.2321 69.636 82.4401 69.512C82.6521 69.384 82.8281 69.212 82.9681 68.996L84.4621 69.344C84.2181 69.876 83.8541 70.312 83.3701 70.652C82.8861 70.988 82.3441 71.156 81.7441 71.156ZM80.2681 67.4H83.2201C83.1761 67.16 83.0821 66.944 82.9381 66.752C82.7981 66.556 82.6241 66.4 82.4161 66.284C82.2081 66.168 81.9841 66.11 81.7441 66.11C81.5041 66.11 81.2821 66.168 81.0781 66.284C80.8741 66.396 80.7001 66.55 80.5561 66.746C80.4161 66.938 80.3201 67.156 80.2681 67.4ZM90.1057 65H91.5697V71H90.1057L90.0397 70.256C89.8757 70.524 89.6577 70.742 89.3857 70.91C89.1177 71.074 88.7997 71.156 88.4317 71.156C87.9877 71.156 87.5717 71.072 87.1837 70.904C86.7957 70.736 86.4537 70.504 86.1577 70.208C85.8657 69.912 85.6357 69.57 85.4677 69.182C85.3037 68.794 85.2217 68.378 85.2217 67.934C85.2217 67.506 85.2997 67.104 85.4557 66.728C85.6157 66.352 85.8377 66.022 86.1217 65.738C86.4057 65.454 86.7337 65.232 87.1057 65.072C87.4777 64.912 87.8777 64.832 88.3057 64.832C88.7017 64.832 89.0557 64.92 89.3677 65.096C89.6837 65.272 89.9517 65.496 90.1717 65.768L90.1057 65ZM88.3957 69.746C88.7077 69.746 88.9837 69.668 89.2237 69.512C89.4637 69.356 89.6517 69.146 89.7877 68.882C89.9237 68.614 89.9917 68.32 89.9917 68C89.9917 67.676 89.9237 67.382 89.7877 67.118C89.6517 66.85 89.4617 66.638 89.2177 66.482C88.9777 66.326 88.7037 66.248 88.3957 66.248C88.0877 66.248 87.8057 66.328 87.5497 66.488C87.2977 66.644 87.0957 66.854 86.9437 67.118C86.7957 67.382 86.7217 67.676 86.7217 68C86.7217 68.324 86.7977 68.618 86.9497 68.882C87.1017 69.146 87.3037 69.356 87.5557 69.512C87.8117 69.668 88.0917 69.746 88.3957 69.746ZM95.8613 66.464H94.6973V71H93.2333V66.464H92.3453V65H93.2333V63.116H94.6973V65H95.8613V66.464ZM99.3255 71.156C98.7735 71.156 98.2695 71.014 97.8135 70.73C97.3615 70.446 96.9995 70.064 96.7275 69.584C96.4595 69.104 96.3255 68.574 96.3255 67.994C96.3255 67.558 96.4035 67.15 96.5595 66.77C96.7155 66.386 96.9295 66.05 97.2015 65.762C97.4775 65.47 97.7975 65.242 98.1615 65.078C98.5255 64.914 98.9135 64.832 99.3255 64.832C99.7935 64.832 100.221 64.932 100.609 65.132C101.001 65.328 101.333 65.598 101.605 65.942C101.877 66.286 102.075 66.678 102.199 67.118C102.323 67.558 102.351 68.018 102.283 68.498H97.8975C97.9535 68.722 98.0455 68.924 98.1735 69.104C98.3015 69.28 98.4635 69.422 98.6595 69.53C98.8555 69.634 99.0775 69.688 99.3255 69.692C99.5815 69.696 99.8135 69.636 100.021 69.512C100.233 69.384 100.409 69.212 100.549 68.996L102.043 69.344C101.799 69.876 101.435 70.312 100.951 70.652C100.467 70.988 99.9255 71.156 99.3255 71.156ZM97.8495 67.4H100.801C100.757 67.16 100.663 66.944 100.519 66.752C100.379 66.556 100.205 66.4 99.9975 66.284C99.7895 66.168 99.5655 66.11 99.3255 66.11C99.0855 66.11 98.8635 66.168 98.6595 66.284C98.4555 66.396 98.2815 66.55 98.1375 66.746C97.9975 66.938 97.9015 67.156 97.8495 67.4ZM110.567 65H112.031V71H110.567L110.501 70.256C110.337 70.524 110.119 70.742 109.847 70.91C109.579 71.074 109.261 71.156 108.893 71.156C108.449 71.156 108.033 71.072 107.645 70.904C107.257 70.736 106.915 70.504 106.619 70.208C106.327 69.912 106.097 69.57 105.929 69.182C105.765 68.794 105.683 68.378 105.683 67.934C105.683 67.506 105.761 67.104 105.917 66.728C106.077 66.352 106.299 66.022 106.583 65.738C106.867 65.454 107.195 65.232 107.567 65.072C107.939 64.912 108.339 64.832 108.767 64.832C109.163 64.832 109.517 64.92 109.829 65.096C110.145 65.272 110.413 65.496 110.633 65.768L110.567 65ZM108.857 69.746C109.169 69.746 109.445 69.668 109.685 69.512C109.925 69.356 110.113 69.146 110.249 68.882C110.385 68.614 110.453 68.32 110.453 68C110.453 67.676 110.385 67.382 110.249 67.118C110.113 66.85 109.923 66.638 109.679 66.482C109.439 66.326 109.165 66.248 108.857 66.248C108.549 66.248 108.267 66.328 108.011 66.488C107.759 66.644 107.557 66.854 107.405 67.118C107.257 67.382 107.183 67.676 107.183 68C107.183 68.324 107.259 68.618 107.411 68.882C107.563 69.146 107.765 69.356 108.017 69.512C108.273 69.668 108.553 69.746 108.857 69.746ZM118.603 67.208V71H117.139V67.592C117.139 67.356 117.081 67.142 116.965 66.95C116.849 66.754 116.693 66.6 116.497 66.488C116.305 66.372 116.091 66.314 115.855 66.314C115.619 66.314 115.403 66.372 115.207 66.488C115.015 66.6 114.861 66.754 114.745 66.95C114.633 67.142 114.577 67.356 114.577 67.592V71H113.113L113.107 65H114.571L114.577 65.534C114.781 65.318 115.025 65.148 115.309 65.024C115.593 64.896 115.899 64.832 116.227 64.832C116.663 64.832 117.061 64.94 117.421 65.156C117.781 65.368 118.067 65.654 118.279 66.014C118.495 66.37 118.603 66.768 118.603 67.208ZM126.965 65H128.429V71H126.965L126.899 70.256C126.735 70.524 126.517 70.742 126.245 70.91C125.977 71.074 125.659 71.156 125.291 71.156C124.847 71.156 124.431 71.072 124.043 70.904C123.655 70.736 123.313 70.504 123.017 70.208C122.725 69.912 122.495 69.57 122.327 69.182C122.163 68.794 122.081 68.378 122.081 67.934C122.081 67.506 122.159 67.104 122.315 66.728C122.475 66.352 122.697 66.022 122.981 65.738C123.265 65.454 123.593 65.232 123.965 65.072C124.337 64.912 124.737 64.832 125.165 64.832C125.561 64.832 125.915 64.92 126.227 65.096C126.543 65.272 126.811 65.496 127.031 65.768L126.965 65ZM125.255 69.746C125.567 69.746 125.843 69.668 126.083 69.512C126.323 69.356 126.511 69.146 126.647 68.882C126.783 68.614 126.851 68.32 126.851 68C126.851 67.676 126.783 67.382 126.647 67.118C126.511 66.85 126.321 66.638 126.077 66.482C125.837 66.326 125.563 66.248 125.255 66.248C124.947 66.248 124.665 66.328 124.409 66.488C124.157 66.644 123.955 66.854 123.803 67.118C123.655 67.382 123.581 67.676 123.581 68C123.581 68.324 123.657 68.618 123.809 68.882C123.961 69.146 124.163 69.356 124.415 69.512C124.671 69.668 124.951 69.746 125.255 69.746ZM133.107 69.194L134.427 69.908C134.151 70.284 133.805 70.586 133.389 70.814C132.973 71.042 132.519 71.156 132.027 71.156C131.475 71.156 130.971 71.014 130.515 70.73C130.063 70.446 129.701 70.066 129.429 69.59C129.161 69.11 129.027 68.58 129.027 68C129.027 67.56 129.105 67.15 129.261 66.77C129.417 66.386 129.631 66.05 129.903 65.762C130.179 65.47 130.499 65.242 130.863 65.078C131.227 64.914 131.615 64.832 132.027 64.832C132.519 64.832 132.973 64.946 133.389 65.174C133.805 65.402 134.151 65.708 134.427 66.092L133.107 66.8C132.967 66.64 132.801 66.516 132.609 66.428C132.421 66.34 132.227 66.296 132.027 66.296C131.739 66.296 131.479 66.376 131.247 66.536C131.015 66.692 130.831 66.9 130.695 67.16C130.559 67.416 130.491 67.696 130.491 68C130.491 68.3 130.559 68.58 130.695 68.84C130.831 69.096 131.015 69.302 131.247 69.458C131.479 69.614 131.739 69.692 132.027 69.692C132.235 69.692 132.433 69.648 132.621 69.56C132.809 69.468 132.971 69.346 133.107 69.194ZM138.917 69.194L140.237 69.908C139.961 70.284 139.615 70.586 139.199 70.814C138.783 71.042 138.329 71.156 137.837 71.156C137.285 71.156 136.781 71.014 136.325 70.73C135.873 70.446 135.511 70.066 135.239 69.59C134.971 69.11 134.837 68.58 134.837 68C134.837 67.56 134.915 67.15 135.071 66.77C135.227 66.386 135.441 66.05 135.713 65.762C135.989 65.47 136.309 65.242 136.673 65.078C137.037 64.914 137.425 64.832 137.837 64.832C138.329 64.832 138.783 64.946 139.199 65.174C139.615 65.402 139.961 65.708 140.237 66.092L138.917 66.8C138.777 66.64 138.611 66.516 138.419 66.428C138.231 66.34 138.037 66.296 137.837 66.296C137.549 66.296 137.289 66.376 137.057 66.536C136.825 66.692 136.641 66.9 136.505 67.16C136.369 67.416 136.301 67.696 136.301 68C136.301 68.3 136.369 68.58 136.505 68.84C136.641 69.096 136.825 69.302 137.057 69.458C137.289 69.614 137.549 69.692 137.837 69.692C138.045 69.692 138.243 69.648 138.431 69.56C138.619 69.468 138.781 69.346 138.917 69.194ZM143.647 71.156C143.095 71.156 142.591 71.014 142.135 70.73C141.683 70.446 141.321 70.066 141.049 69.59C140.781 69.11 140.647 68.58 140.647 68C140.647 67.56 140.725 67.15 140.881 66.77C141.037 66.386 141.251 66.05 141.523 65.762C141.799 65.47 142.119 65.242 142.483 65.078C142.847 64.914 143.235 64.832 143.647 64.832C144.199 64.832 144.701 64.974 145.153 65.258C145.609 65.542 145.971 65.924 146.239 66.404C146.511 66.884 146.647 67.416 146.647 68C146.647 68.436 146.569 68.844 146.413 69.224C146.257 69.604 146.041 69.94 145.765 70.232C145.493 70.52 145.175 70.746 144.811 70.91C144.451 71.074 144.063 71.156 143.647 71.156ZM143.647 69.692C143.939 69.692 144.201 69.614 144.433 69.458C144.665 69.302 144.847 69.096 144.979 68.84C145.115 68.584 145.183 68.304 145.183 68C145.183 67.688 145.113 67.404 144.973 67.148C144.837 66.888 144.651 66.682 144.415 66.53C144.183 66.374 143.927 66.296 143.647 66.296C143.359 66.296 143.099 66.374 142.867 66.53C142.635 66.686 142.451 66.894 142.315 67.154C142.179 67.414 142.111 67.696 142.111 68C142.111 68.316 142.181 68.602 142.321 68.858C142.461 69.114 142.647 69.318 142.879 69.47C143.115 69.618 143.371 69.692 143.647 69.692ZM147.092 68.78V65H148.556V68.396C148.556 68.632 148.614 68.848 148.73 69.044C148.846 69.236 149 69.39 149.192 69.506C149.388 69.618 149.602 69.674 149.834 69.674C150.074 69.674 150.29 69.618 150.482 69.506C150.674 69.39 150.828 69.236 150.944 69.044C151.06 68.848 151.118 68.632 151.118 68.396V65H152.582L152.588 71H151.124L151.118 70.454C150.91 70.67 150.664 70.842 150.38 70.97C150.096 71.094 149.792 71.156 149.468 71.156C149.032 71.156 148.634 71.05 148.274 70.838C147.914 70.622 147.626 70.336 147.41 69.98C147.198 69.62 147.092 69.22 147.092 68.78ZM159.165 67.208V71H157.701V67.592C157.701 67.356 157.643 67.142 157.527 66.95C157.411 66.754 157.255 66.6 157.059 66.488C156.867 66.372 156.653 66.314 156.417 66.314C156.181 66.314 155.965 66.372 155.769 66.488C155.577 66.6 155.423 66.754 155.307 66.95C155.195 67.142 155.139 67.356 155.139 67.592V71H153.675L153.669 65H155.133L155.139 65.534C155.343 65.318 155.587 65.148 155.871 65.024C156.155 64.896 156.461 64.832 156.789 64.832C157.225 64.832 157.623 64.94 157.983 65.156C158.343 65.368 158.629 65.654 158.841 66.014C159.057 66.37 159.165 66.768 159.165 67.208ZM163.456 66.464H162.292V71H160.828V66.464H159.94V65H160.828V63.116H162.292V65H163.456V66.464Z" fill="#2C3131"/>
<rect x="66" y="91" width="48" height="4" rx="2" fill="#2C3131"/>
<rect x="66.5" y="99.5" width="179" height="27" rx="13.5" fill="white"/>
<rect x="78" y="111" width="48" height="4" rx="2" fill="#A9A9A9"/>
<rect x="66.5" y="99.5" width="179" height="27" rx="13.5" stroke="#E9E9E9"/>
<rect x="66" y="135" width="48" height="4" rx="2" fill="#2C3131"/>
<rect x="66.5" y="143.5" width="179" height="27" rx="13.5" fill="white"/>
<rect x="78" y="155" width="48" height="4" rx="2" fill="#A9A9A9"/>
<rect x="66.5" y="143.5" width="179" height="27" rx="13.5" stroke="#E9E9E9"/>
<rect x="66" y="179" width="48" height="4" rx="2" fill="#2C3131"/>
<rect x="66.5" y="187.5" width="179" height="27" rx="13.5" fill="white"/>
<rect x="78" y="199" width="48" height="4" rx="2" fill="#A9A9A9"/>
<rect x="66.5" y="187.5" width="179" height="27" rx="13.5" stroke="#E9E9E9"/>
<rect x="66" y="223" width="180" height="28" rx="14" fill="#2563EB"/>
<path d="M140.146 241.13C139.673 241.13 139.228 241.037 138.811 240.85C138.394 240.66 138.028 240.398 137.711 240.065C137.398 239.732 137.151 239.347 136.971 238.91C136.794 238.47 136.706 238 136.706 237.5C136.706 236.997 136.794 236.527 136.971 236.09C137.151 235.65 137.398 235.265 137.711 234.935C138.028 234.602 138.394 234.342 138.811 234.155C139.228 233.965 139.673 233.87 140.146 233.87C140.713 233.87 141.234 234.002 141.711 234.265C142.188 234.525 142.583 234.873 142.896 235.31L141.806 235.895C141.609 235.652 141.364 235.457 141.071 235.31C140.781 235.163 140.473 235.09 140.146 235.09C139.839 235.09 139.551 235.153 139.281 235.28C139.011 235.403 138.774 235.577 138.571 235.8C138.368 236.02 138.209 236.277 138.096 236.57C137.983 236.86 137.926 237.17 137.926 237.5C137.926 237.833 137.983 238.145 138.096 238.435C138.213 238.725 138.373 238.982 138.576 239.205C138.779 239.425 139.014 239.598 139.281 239.725C139.551 239.848 139.839 239.91 140.146 239.91C140.479 239.91 140.789 239.837 141.076 239.69C141.366 239.54 141.609 239.343 141.806 239.1L142.896 239.69C142.583 240.123 142.188 240.472 141.711 240.735C141.234 240.998 140.713 241.13 140.146 241.13ZM145.676 241.13C145.216 241.13 144.796 241.012 144.416 240.775C144.039 240.538 143.738 240.222 143.511 239.825C143.288 239.425 143.176 238.983 143.176 238.5C143.176 238.133 143.241 237.792 143.371 237.475C143.501 237.155 143.679 236.875 143.906 236.635C144.136 236.392 144.403 236.202 144.706 236.065C145.009 235.928 145.333 235.86 145.676 235.86C146.136 235.86 146.554 235.978 146.931 236.215C147.311 236.452 147.613 236.77 147.836 237.17C148.063 237.57 148.176 238.013 148.176 238.5C148.176 238.863 148.111 239.203 147.981 239.52C147.851 239.837 147.671 240.117 147.441 240.36C147.214 240.6 146.949 240.788 146.646 240.925C146.346 241.062 146.023 241.13 145.676 241.13ZM145.676 239.91C145.919 239.91 146.138 239.845 146.331 239.715C146.524 239.585 146.676 239.413 146.786 239.2C146.899 238.987 146.956 238.753 146.956 238.5C146.956 238.24 146.898 238.003 146.781 237.79C146.668 237.573 146.513 237.402 146.316 237.275C146.123 237.145 145.909 237.08 145.676 237.08C145.436 237.08 145.219 237.145 145.026 237.275C144.833 237.405 144.679 237.578 144.566 237.795C144.453 238.012 144.396 238.247 144.396 238.5C144.396 238.763 144.454 239.002 144.571 239.215C144.688 239.428 144.843 239.598 145.036 239.725C145.233 239.848 145.446 239.91 145.676 239.91ZM153.434 237.84V241H152.214V238.16C152.214 237.963 152.166 237.785 152.069 237.625C151.973 237.462 151.843 237.333 151.679 237.24C151.519 237.143 151.341 237.095 151.144 237.095C150.948 237.095 150.768 237.143 150.604 237.24C150.444 237.333 150.316 237.462 150.219 237.625C150.126 237.785 150.079 237.963 150.079 238.16V241H148.859L148.854 236H150.074L150.079 236.445C150.249 236.265 150.453 236.123 150.689 236.02C150.926 235.913 151.181 235.86 151.454 235.86C151.818 235.86 152.149 235.95 152.449 236.13C152.749 236.307 152.988 236.545 153.164 236.845C153.344 237.142 153.434 237.473 153.434 237.84ZM157.011 237.22H156.041V241H154.821V237.22H154.081V236H154.821V234.43H156.041V236H157.011V237.22ZM157.737 236H158.957V241H157.737V236ZM158.357 235.355C158.177 235.355 158.025 235.297 157.902 235.18C157.778 235.06 157.717 234.91 157.717 234.73C157.717 234.553 157.778 234.405 157.902 234.285C158.025 234.165 158.175 234.105 158.352 234.105C158.528 234.105 158.677 234.165 158.797 234.285C158.92 234.405 158.982 234.553 158.982 234.73C158.982 234.91 158.922 235.06 158.802 235.18C158.682 235.297 158.533 235.355 158.357 235.355ZM164.599 237.84V241H163.379V238.16C163.379 237.963 163.331 237.785 163.234 237.625C163.138 237.462 163.008 237.333 162.844 237.24C162.684 237.143 162.506 237.095 162.309 237.095C162.113 237.095 161.933 237.143 161.769 237.24C161.609 237.333 161.481 237.462 161.384 237.625C161.291 237.785 161.244 237.963 161.244 238.16V241H160.024L160.019 236H161.239L161.244 236.445C161.414 236.265 161.618 236.123 161.854 236.02C162.091 235.913 162.346 235.86 162.619 235.86C162.983 235.86 163.314 235.95 163.614 236.13C163.914 236.307 164.153 236.545 164.329 236.845C164.509 237.142 164.599 237.473 164.599 237.84ZM165.296 239.15V236H166.516V238.83C166.516 239.027 166.564 239.207 166.661 239.37C166.757 239.53 166.886 239.658 167.046 239.755C167.209 239.848 167.387 239.895 167.581 239.895C167.781 239.895 167.961 239.848 168.121 239.755C168.281 239.658 168.409 239.53 168.506 239.37C168.602 239.207 168.651 239.027 168.651 238.83V236H169.871L169.876 241H168.656L168.651 240.545C168.477 240.725 168.272 240.868 168.036 240.975C167.799 241.078 167.546 241.13 167.276 241.13C166.912 241.13 166.581 241.042 166.281 240.865C165.981 240.685 165.741 240.447 165.561 240.15C165.384 239.85 165.296 239.517 165.296 239.15ZM172.898 241.13C172.438 241.13 172.018 241.012 171.638 240.775C171.262 240.538 170.96 240.22 170.733 239.82C170.51 239.42 170.398 238.978 170.398 238.495C170.398 238.132 170.463 237.792 170.593 237.475C170.723 237.155 170.902 236.875 171.128 236.635C171.358 236.392 171.625 236.202 171.928 236.065C172.232 235.928 172.555 235.86 172.898 235.86C173.288 235.86 173.645 235.943 173.968 236.11C174.295 236.273 174.572 236.498 174.798 236.785C175.025 237.072 175.19 237.398 175.293 237.765C175.397 238.132 175.42 238.515 175.363 238.915H171.708C171.755 239.102 171.832 239.27 171.938 239.42C172.045 239.567 172.18 239.685 172.343 239.775C172.507 239.862 172.692 239.907 172.898 239.91C173.112 239.913 173.305 239.863 173.478 239.76C173.655 239.653 173.802 239.51 173.918 239.33L175.163 239.62C174.96 240.063 174.657 240.427 174.253 240.71C173.85 240.99 173.398 241.13 172.898 241.13ZM171.668 238H174.128C174.092 237.8 174.013 237.62 173.893 237.46C173.777 237.297 173.632 237.167 173.458 237.07C173.285 236.973 173.098 236.925 172.898 236.925C172.698 236.925 172.513 236.973 172.343 237.07C172.173 237.163 172.028 237.292 171.908 237.455C171.792 237.615 171.712 237.797 171.668 238Z" fill="white"/>
</svg>
