<svg width="112" height="108" viewBox="0 0 112 108" fill="none" xmlns="http://www.w3.org/2000/svg">
<path d="M75 20.5H25C15.7917 20.5 8.33334 27.9167 8.33334 37.0417V78.9583C8.33334 88.0833 15.7917 95.5 25 95.5H75C84.2083 95.5 91.6667 88.0833 91.6667 78.9583V37.0417C91.6667 27.9167 84.2083 20.5 75 20.5ZM35.4167 37.875C40.7083 37.875 45.0417 42.2083 45.0417 47.5C45.0417 52.7917 40.7083 57.125 35.4167 57.125C30.125 57.125 25.7917 52.7917 25.7917 47.5C25.7917 42.2083 30.125 37.875 35.4167 37.875ZM51.5417 77.4167C51.1667 77.8333 50.5833 78.0833 50 78.0833H20.8333C20.25 78.0833 19.6667 77.8333 19.2917 77.4167C18.9167 77 18.7083 76.4167 18.75 75.8333C19.4583 68.8333 25.0417 63.2917 32.0417 62.625C34.25 62.4167 36.5417 62.4167 38.75 62.625C45.75 63.2917 51.375 68.8333 52.0417 75.8333C52.125 76.4167 51.9167 77 51.5417 77.4167ZM79.1667 77.7917H70.8333C69.125 77.7917 67.7083 76.375 67.7083 74.6667C67.7083 72.9583 69.125 71.5417 70.8333 71.5417H79.1667C80.875 71.5417 82.2917 72.9583 82.2917 74.6667C82.2917 76.375 80.875 77.7917 79.1667 77.7917ZM79.1667 61.125H62.5C60.7917 61.125 59.375 59.7083 59.375 58C59.375 56.2917 60.7917 54.875 62.5 54.875H79.1667C80.875 54.875 82.2917 56.2917 82.2917 58C82.2917 59.7083 80.875 61.125 79.1667 61.125ZM79.1667 44.4583H58.3333C56.625 44.4583 55.2083 43.0417 55.2083 41.3333C55.2083 39.625 56.625 38.2083 58.3333 38.2083H79.1667C80.875 38.2083 82.2917 39.625 82.2917 41.3333C82.2917 43.0417 80.875 44.4583 79.1667 44.4583Z" fill="#2C3131"/>
<path d="M107.933 17.8999L105.667 15.2666C105.233 14.7666 104.883 13.8333 104.883 13.1666V10.3333C104.883 8.5666 103.433 7.1166 101.667 7.1166H98.8333C98.1833 7.1166 97.2333 6.7666 96.7333 6.33327L94.1 4.0666C92.95 3.08327 91.0667 3.08327 89.9 4.0666L87.2833 6.34993C86.7833 6.7666 85.8333 7.1166 85.1833 7.1166H82.3C80.5333 7.1166 79.0833 8.5666 79.0833 10.3333V13.1833C79.0833 13.8333 78.7333 14.7666 78.3167 15.2666L76.0667 17.9166C75.1 19.0666 75.1 20.9333 76.0667 22.0833L78.3167 24.7333C78.7333 25.2333 79.0833 26.1666 79.0833 26.8166V29.6666C79.0833 31.4333 80.5333 32.8833 82.3 32.8833H85.1833C85.8333 32.8833 86.7833 33.2333 87.2833 33.6666L89.9167 35.9333C91.0667 36.9166 92.95 36.9166 94.1167 35.9333L96.75 33.6666C97.25 33.2333 98.1833 32.8833 98.85 32.8833H101.683C103.45 32.8833 104.9 31.4333 104.9 29.6666V26.8333C104.9 26.1833 105.25 25.2333 105.683 24.7333L107.95 22.0999C108.917 20.9499 108.917 19.0499 107.933 17.8999ZM98.9333 16.8499L90.8833 24.8999C90.65 25.1333 90.3333 25.2666 90 25.2666C89.6667 25.2666 89.35 25.1333 89.1167 24.8999L85.0833 20.8666C84.6 20.3833 84.6 19.5833 85.0833 19.0999C85.5667 18.6166 86.3667 18.6166 86.85 19.0999L90 22.2499L97.1667 15.0833C97.65 14.5999 98.45 14.5999 98.9333 15.0833C99.4167 15.5666 99.4167 16.3666 98.9333 16.8499Z" fill="#2563EB"/>
</svg>
