<svg width="20" height="20" viewBox="0 0 20 20" fill="none" xmlns="http://www.w3.org/2000/svg">
<path d="M14.1333 5.1416C15.8 6.29993 16.95 8.1416 17.1833 10.2666" stroke="white" stroke-width="1.5" stroke-linecap="round" stroke-linejoin="round"/>
<path d="M2.90833 10.3083C3.12499 8.19168 4.25833 6.35002 5.90833 5.18335" stroke="white" stroke-width="1.5" stroke-linecap="round" stroke-linejoin="round"/>
<path d="M6.82495 17.45C7.79162 17.9416 8.89162 18.2166 10.05 18.2166C11.1666 18.2166 12.2166 17.9666 13.1583 17.5083" stroke="white" stroke-width="1.5" stroke-linecap="round" stroke-linejoin="round"/>
<path d="M10.0499 6.41678C11.3294 6.41678 12.3666 5.37957 12.3666 4.10011C12.3666 2.82065 11.3294 1.78345 10.0499 1.78345C8.77048 1.78345 7.73328 2.82065 7.73328 4.10011C7.73328 5.37957 8.77048 6.41678 10.0499 6.41678Z" stroke="white" stroke-width="1.5" stroke-linecap="round" stroke-linejoin="round"/>
<path d="M4.02504 16.5999C5.3045 16.5999 6.34171 15.5627 6.34171 14.2832C6.34171 13.0038 5.3045 11.9666 4.02504 11.9666C2.74558 11.9666 1.70837 13.0038 1.70837 14.2832C1.70837 15.5627 2.74558 16.5999 4.02504 16.5999Z" stroke="white" stroke-width="1.5" stroke-linecap="round" stroke-linejoin="round"/>
<path d="M15.975 16.5999C17.2545 16.5999 18.2917 15.5627 18.2917 14.2832C18.2917 13.0038 17.2545 11.9666 15.975 11.9666C14.6955 11.9666 13.6583 13.0038 13.6583 14.2832C13.6583 15.5627 14.6955 16.5999 15.975 16.5999Z" stroke="white" stroke-width="1.5" stroke-linecap="round" stroke-linejoin="round"/>
</svg>
